<?xml version="1.0" encoding="UTF-8"?>
<svg width="514px" height="514px" viewBox="0 0 514 514" version="1.1" xmlns="http://www.w3.org/2000/svg" xmlns:xlink="http://www.w3.org/1999/xlink">
    <!-- Generator: Sketch 58 (84663) - https://sketch.com -->
    <title>user-guest</title>
    <desc>Created with Sketch.</desc>
    <defs>
        <linearGradient x1="50%" y1="0%" x2="50%" y2="100%" id="linearGradient-1">
            <stop stop-color="#A968EC" offset="0%"></stop>
            <stop stop-color="#8224E3" offset="100%"></stop>
        </linearGradient>
    </defs>
    <g id="Page-1" stroke="none" stroke-width="1" fill="none" fill-rule="evenodd">
        <g id="user-guest" transform="translate(1.000000, 1.000000)" fill-rule="nonzero">
            <g id="Group" transform="translate(328.827586, 493.241379)" fill="#FFFFFF">
                <path d="M8.68634483,5.42896552 C6.02041379,6.32937931 3.33682759,7.20331034 0.635586207,8.00662069 C3.34565517,7.19448276 6.02041379,6.32055172 8.68634483,5.42896552 Z" id="Path"></path>
                <path d="M22.0601379,0.520827586 C19.1823448,1.66841379 16.3045517,2.79834483 13.3737931,3.84 C16.3045517,2.78951724 19.1911724,1.66841379 22.0601379,0.520827586 Z" id="Path"></path>
            </g>
            <circle id="Oval" stroke="#F7F7F7" fill="#FFFFFF" cx="256" cy="256" r="256"></circle>
            <g id="Group" transform="translate(144.551724, 485.517241)" fill="#FFFFFF">
                <path d="M179.74731,17.1961379 C177.134345,17.92 174.503724,18.6085517 171.846621,19.2529655 C174.503724,18.6085517 177.134345,17.92 179.74731,17.1961379 Z" id="Path"></path>
                <path d="M92.9015172,25.7412414 C89.7765517,25.5205517 86.6604138,25.2822069 83.5795862,24.9467586 C86.6692414,25.2822069 89.7853793,25.5205517 92.9015172,25.7412414 Z" id="Path"></path>
                <path d="M51.0411034,19.2441379 C48.3928276,18.5997241 45.7622069,17.9111724 43.1404138,17.1873103 C45.7622069,17.92 48.3928276,18.6085517 51.0411034,19.2441379 Z" id="Path"></path>
                <path d="M78.2830345,24.2758621 C75.4846897,23.913931 72.6951724,23.5343448 69.9233103,23.0841379 C72.6863448,23.5343448 75.4846897,23.9051034 78.2830345,24.2758621 Z" id="Path"></path>
                <path d="M111.448276,26.4827586 C106.734345,26.4827586 102.064552,26.3326897 97.4124138,26.0855172 C102.064552,26.3326897 106.734345,26.4827586 111.448276,26.4827586 Z" id="Path"></path>
                <path d="M64.4590345,22.1042759 C61.7754483,21.609931 59.1006897,21.0802759 56.4524138,20.4976552 C59.1006897,21.0802759 61.7754483,21.609931 64.4590345,22.1042759 Z" id="Path"></path>
                <path d="M12.8088276,6.76193103 C8.82758621,5.09351724 4.89048276,3.34565517 1.01517241,1.49186207 C4.89931034,3.34565517 8.83641379,5.10234483 12.8088276,6.76193103 Z" id="Path"></path>
                <path d="M25.238069,11.5641379 C22.3161379,10.5136552 19.4295172,9.39255172 16.5517241,8.24496552 C19.4295172,9.39255172 22.3161379,10.5136552 25.238069,11.5641379 Z" id="Path"></path>
                <path d="M125.484138,26.0855172 C120.832,26.3326897 116.162207,26.4827586 111.448276,26.4827586 C116.162207,26.4827586 120.832,26.3326897 125.484138,26.0855172 Z" id="Path"></path>
                <path d="M139.316966,24.9467586 C136.22731,25.2822069 133.111172,25.5205517 129.995034,25.7412414 C133.111172,25.5205517 136.22731,25.2822069 139.316966,24.9467586 Z" id="Path"></path>
                <path d="M166.452966,20.4976552 C163.795862,21.0802759 161.129931,21.609931 158.446345,22.1042759 C161.121103,21.609931 163.795862,21.0802759 166.452966,20.4976552 Z" id="Path"></path>
                <path d="M152.982069,23.0753103 C150.210207,23.5255172 147.42069,23.9051034 144.622345,24.2670345 C147.411862,23.9051034 150.210207,23.5343448 152.982069,23.0753103 Z" id="Path"></path>
                <path d="M221.828414,1.50951724 C217.970759,3.35448276 214.05131,5.10234483 210.087724,6.76193103 C214.05131,5.10234483 217.970759,3.36331034 221.828414,1.50951724 Z" id="Path"></path>
                <path d="M37.9851034,15.7307586 C35.2750345,14.9186207 32.6002759,14.0446897 29.9343448,13.1531034 C32.6002759,14.0446897 35.2750345,14.9186207 37.9851034,15.7307586 Z" id="Path"></path>
                <path d="M210.087724,6.76193103 C208.851862,7.28275862 207.589517,7.7417931 206.344828,8.23613793 C207.58069,7.7417931 208.843034,7.28275862 210.087724,6.76193103 Z" id="Path"></path>
                <path d="M222.181517,1.35062069 C222.066759,1.40358621 221.943172,1.45655172 221.828414,1.50951724 C221.943172,1.45655172 222.066759,1.41241379 222.181517,1.35062069 Z" id="Path"></path>
                <path d="M56.4435862,20.4976552 C54.633931,20.1004138 52.8331034,19.6855172 51.0411034,19.2529655 C52.8331034,19.6855172 54.633931,20.1004138 56.4435862,20.4976552 Z" id="Path"></path>
                <path d="M69.9144828,23.0753103 C68.0871724,22.7751724 66.2686897,22.4397241 64.4502069,22.1042759 C66.2775172,22.4397241 68.0871724,22.784 69.9144828,23.0753103 Z" id="Path"></path>
                <path d="M97.4124138,26.0855172 C95.9028966,26.006069 94.4022069,25.8471724 92.9015172,25.7412414 C94.4110345,25.8471724 95.9028966,26.006069 97.4124138,26.0855172 Z" id="Path"></path>
                <path d="M83.5795862,24.9467586 C81.8052414,24.7525517 80.0485517,24.5053793 78.2830345,24.2758621 C80.0485517,24.5053793 81.8052414,24.7525517 83.5795862,24.9467586 Z" id="Path"></path>
                <path d="M1.024,1.49186207 C0.926896552,1.44772414 0.820965517,1.40358621 0.723862069,1.35944828 C0.820965517,1.40358621 0.926896552,1.44772414 1.024,1.49186207 Z" id="Path"></path>
                <path d="M129.995034,25.7412414 C128.485517,25.8471724 126.993655,26.006069 125.484138,26.0855172 C126.993655,26.006069 128.485517,25.8471724 129.995034,25.7412414 Z" id="Path"></path>
                <path d="M184.911448,15.7307586 C183.198897,16.2427586 181.477517,16.7194483 179.74731,17.1961379 C181.477517,16.7194483 183.198897,16.2427586 184.911448,15.7307586 Z" id="Path"></path>
                <path d="M197.658483,11.5641379 C196.104828,12.1202759 194.533517,12.6234483 192.971034,13.1531034 C194.533517,12.6234483 196.104828,12.1202759 197.658483,11.5641379 Z" id="Path"></path>
                <path d="M16.5605517,8.24496552 C15.3158621,7.75062069 14.0535172,7.28275862 12.8176552,6.77075862 C14.0535172,7.28275862 15.3158621,7.7417931 16.5605517,8.24496552 Z" id="Path"></path>
                <path d="M29.9343448,13.1531034 C28.3718621,12.6234483 26.7917241,12.1202759 25.2468966,11.5641379 C26.7917241,12.1202759 28.3630345,12.6234483 29.9343448,13.1531034 Z" id="Path"></path>
                <path d="M144.613517,24.2758621 C142.848,24.5053793 141.09131,24.7613793 139.316966,24.9467586 C141.09131,24.7525517 142.848,24.5053793 144.613517,24.2758621 Z" id="Path"></path>
                <path d="M171.855448,19.2441379 C170.063448,19.6766897 168.262621,20.0915862 166.452966,20.4888276 C168.262621,20.1004138 170.063448,19.6855172 171.855448,19.2441379 Z" id="Path"></path>
                <path d="M158.437517,22.1042759 C156.619034,22.4397241 154.809379,22.784 152.973241,23.0753103 C154.809379,22.784 156.619034,22.4397241 158.437517,22.1042759 Z" id="Path"></path>
                <path d="M43.1492414,17.1961379 C41.4278621,16.7194483 39.6976552,16.2427586 37.9851034,15.7307586 C39.6976552,16.2427586 41.4190345,16.7194483 43.1492414,17.1961379 Z" id="Path"></path>
            </g>
            <path d="M314.597517,273.602207 C343.119448,254.614069 361.931034,222.208 361.931034,185.37931 C361.931034,126.878897 314.500414,79.4482759 256,79.4482759 C197.499586,79.4482759 150.068966,126.878897 150.068966,185.37931 C150.068966,222.208 168.880552,254.614069 197.402483,273.602207 C197.402483,273.602207 197.41131,273.611034 197.420138,273.611034 C197.41131,273.611034 197.41131,273.602207 197.41131,273.602207 C129.138759,294.17931 75.9790345,349.590069 58.8623448,419.301517 L58.8711724,419.310345 C61.6606897,422.673655 64.5561379,425.957517 67.5133793,429.179586 C68.2284138,429.965241 68.9787586,430.715586 69.7114483,431.483586 C71.9889655,433.902345 74.2929655,436.285793 76.6587586,438.616276 C77.6386207,439.578483 78.6361379,440.505379 79.6336552,441.449931 C81.8228966,443.533241 84.0386207,445.590069 86.2984828,447.593931 C87.4195862,448.582621 88.5583448,449.562483 89.6882759,450.533517 C91.904,452.431448 94.1462069,454.294069 96.4325517,456.112552 C97.6331034,457.074759 98.8424828,458.01931 100.051862,458.963862 C102.36469,460.747034 104.712828,462.477241 107.087448,464.172138 C108.314483,465.046069 109.523862,465.937655 110.768552,466.793931 C113.275586,468.524138 115.826759,470.183724 118.395586,471.825655 C119.552,472.558345 120.681931,473.317517 121.847172,474.041379 C124.813241,475.86869 127.832276,477.616552 130.877793,479.329103 C131.681103,479.77931 132.466759,480.264828 133.278897,480.706207 C137.216,482.860138 141.214897,484.925793 145.275586,486.87669 C145.37269,486.920828 145.478621,486.964966 145.575724,487.009103 C149.451034,488.862897 153.388138,490.619586 157.369379,492.279172 C158.605241,492.8 159.867586,493.259034 161.112276,493.753379 C163.990069,494.900966 166.867862,496.030897 169.798621,497.072552 C171.352276,497.62869 172.923586,498.131862 174.486069,498.661517 C177.152,499.561931 179.835586,500.435862 182.536828,501.239172 C184.249379,501.751172 185.970759,502.227862 187.700966,502.704552 C190.313931,503.428414 192.944552,504.116966 195.601655,504.761379 C197.393655,505.193931 199.194483,505.608828 201.004138,506.006069 C203.661241,506.58869 206.327172,507.118345 209.010759,507.61269 C210.829241,507.948138 212.638897,508.292414 214.475034,508.583724 C217.246897,509.033931 220.036414,509.413517 222.834759,509.775448 C224.600276,510.004966 226.356966,510.260966 228.13131,510.446345 C231.220966,510.781793 234.337103,511.020138 237.453241,511.240828 C238.962759,511.346759 240.454621,511.505655 241.964138,511.585103 C246.616276,511.849931 251.286069,512 256,512 C260.713931,512 265.383724,511.849931 270.035862,511.602759 C271.545379,511.52331 273.046069,511.364414 274.546759,511.258483 C277.671724,511.037793 280.787862,510.799448 283.86869,510.464 C285.643034,510.269793 287.399724,510.022621 289.165241,509.793103 C291.963586,509.431172 294.753103,509.051586 297.524966,508.601379 C299.352276,508.301241 301.170759,507.965793 302.989241,507.630345 C305.672828,507.136 308.347586,506.606345 310.995862,506.023724 C312.805517,505.626483 314.606345,505.211586 316.398345,504.779034 C319.046621,504.134621 321.677241,503.446069 324.299034,502.722207 C326.020414,502.245517 327.750621,501.768828 329.463172,501.256828 C332.173241,500.44469 334.848,499.570759 337.513931,498.679172 C339.076414,498.149517 340.656552,497.646345 342.201379,497.090207 C345.12331,496.039724 348.009931,494.918621 350.887724,493.771034 C352.132414,493.27669 353.394759,492.808828 354.630621,492.296828 C358.594207,490.637241 362.513655,488.898207 366.37131,487.044414 C366.486069,486.991448 366.609655,486.938483 366.724414,486.885517 C370.785103,484.934621 374.784,482.868966 378.721103,480.715034 C379.533241,480.273655 380.318897,479.788138 381.122207,479.337931 C384.167724,477.625379 387.186759,475.877517 390.152828,474.050207 C391.318069,473.335172 392.456828,472.576 393.604414,471.834483 C396.173241,470.192552 398.724414,468.524138 401.231448,466.802759 C402.46731,465.946483 403.685517,465.063724 404.912552,464.180966 C407.287172,462.477241 409.63531,460.747034 411.948138,458.97269 C413.166345,458.036966 414.366897,457.083586 415.567448,456.121379 C417.844966,454.302897 420.096,452.440276 422.311724,450.542345 C423.450483,449.57131 424.589241,448.591448 425.701517,447.602759 C427.961379,445.598897 430.177103,443.542069 432.366345,441.458759 C433.355034,440.514207 434.361379,439.578483 435.341241,438.625103 C437.707034,436.294621 440.019862,433.911172 442.288552,431.492414 C443.012414,430.715586 443.762759,429.965241 444.486621,429.188414 C447.443862,425.966345 450.33931,422.682483 453.128828,419.319172 L453.137655,419.310345 C436.029793,349.590069 382.870069,294.17931 314.597517,273.602207 Z" id="Path" fill="url(#linearGradient-1)"></path>
        </g>
    </g>
</svg>